# xmcd CD database file
#
# Track frame offsets:
#	183
#	14838
#	28468
#	42068
#	55998
#	69140
#	81530
#	92963
#	104133
#	115220
#	125200
#	136330
#	149108
#	156870
#	169448
#	179695
#	193738
#	206070
#	222385
#	235775
#	249640
#	262873
#
# Disc length: 3672 seconds
#
# Revision: 1
# Processed by: cddbd v1.5.1PL0 Copyright (c) Steve Scherf et al.
# Submitted via: CDex 1.51
#
DISCID=660e5616
DTITLE=Elmore James - King Of The Slide Guitar - Disc 2
DYEAR=1982
DGENRE=Blues
TTITLE0=Stranger Blues
TTITLE1=Anna Lee
TTITLE2=Standing At The Crossroads
TTITLE3=My Bleedin Heart
TTITLE4=My Kind Of Woman
TTITLE5=Got To Move
TTITLE6=So Unkind
TTITLE7=Person To Person
TTITLE8=One Way Out
TTITLE9=Go Back Home Again
TTITLE10=Look On Yonder Wall
TTITLE11=Shake Your Moneymaker (Take 1/2)
TTITLE12=Mean Mistreatin' Mama (Take 1)
TTITLE13=Mean Mistreatin' Mama (Take 2)
TTITLE14=Sunnyland train
TTITLE15=You Know You're Wrong
TTITLE16=Mean Mistreatin' Mama (Take 3)
TTITLE17=You Know You Done Me Wrong
TTITLE18=My Baby's Gone
TTITLE19=Find My Kind Of Woman
TTITLE20=Look On Yonder Wall
TTITLE21=Find My Kinda Woman
EXTD=YEAR: 1982
EXTT0=
EXTT1=
EXTT2=
EXTT3=
EXTT4=
EXTT5=
EXTT6=
EXTT7=
EXTT8=
EXTT9=
EXTT10=
EXTT11=
EXTT12=
EXTT13=
EXTT14=
EXTT15=
EXTT16=
EXTT17=
EXTT18=
EXTT19=
EXTT20=
EXTT21=
PLAYORDER=
